<svg xmlns="http://www.w3.org/2000/svg" xmlns:xlink="http://www.w3.org/1999/xlink" id="icon-instagram-noborder" viewBox="0 0 40 40" version="1.1" fill="#666">
    <g id="Icon/Social-Media/instagram" stroke="none" stroke-width="1" fill-rule="evenodd">
        <path d="M20.5395618,10.0381008 C22.192093,10.04182 22.5543799,10.0568287 23.4136856,10.0948025 C24.2023223,10.1109423 24.9824842,10.2604226 25.7210237,10.5366376 C26.9959374,11.0285946 28.0038942,12.0329387 28.4976209,13.3032828 C28.7784518,14.0492541 28.9284698,14.8377882 28.9410453,15.6344262 C28.9900279,16.4851201 28.9975637,16.8498894 28.998723,18.4977919 L28.998698,20.0886003 C28.9967763,22.1559639 28.9826834,22.5007129 28.9410453,23.4347774 C28.9248475,24.2205875 28.7748978,24.9980211 28.4976209,25.7337774 C28.0038942,27.0041896 26.9959374,28.0085337 25.7210237,28.5004226 C24.9824842,28.7767057 24.2023223,28.9261179 23.4136856,28.9423258 C22.5598159,28.9911328 22.1937657,28.9986416 20.5399478,28.9997968 L18.9434086,28.9997708 C16.8685726,28.9978473 16.5227,28.9837518 15.5852755,28.9423258 C14.7947252,28.9159029 14.014495,28.7556627 13.2779374,28.4684835 C12.0029554,27.9765265 10.9949986,26.9721824 10.5013403,25.7018384 C10.2240633,24.9659459 10.0741137,24.1885803 10.0578475,23.4027022 C10.0155943,22.6679621 10.0042184,22.2956941 10.0011557,21.1463176 L10.0010099,18.4661732 C10.0047411,16.819565 10.0197949,16.4585767 10.0578475,15.6023509 C10.0741137,14.8165409 10.2240633,14.0391072 10.5013403,13.3032828 C10.9949986,12.0329387 12.0029554,11.0285946 13.2779374,10.5366376 C14.0164086,10.2604226 14.7965705,10.1109423 15.5852755,10.0948025 C16.3227084,10.052651 16.6962561,10.0413025 17.849758,10.0382472 Z M20.671251,11.7025416 L18.9260014,11.7023949 C16.8441493,11.7042573 16.5329695,11.7183655 15.6045489,11.7598563 C15.0031101,11.7675516 14.4074806,11.8779423 13.843495,12.0864656 C13.0105705,12.4029961 12.3517216,13.0572362 12.0310453,13.8860857 C11.8196532,14.4540427 11.7087971,15.0542792 11.7032612,15.6600319 C11.6539487,16.5274766 11.6466432,16.84649 11.6455609,18.5054599 L11.6454265,19.7779329 C11.6463686,22.0861107 11.6598897,22.3829926 11.7032612,23.3450892 C11.7109842,23.9443724 11.8218403,24.5379351 12.0310453,25.0998312 C12.3517216,25.9286806 13.0105705,26.5827846 13.843495,26.8994513 C14.4074806,27.1078384 15.0031101,27.2182971 15.6045489,27.2259925 C16.6265165,27.2836735 16.8899878,27.2836735 19.4608655,27.2836735 C22.0318115,27.2836735 22.3145561,27.2708706 23.3172504,27.2259925 C23.9186892,27.2182971 24.5143871,27.1078384 25.0783043,26.8994513 C25.9083583,26.5806735 26.5644734,25.92691 26.8843978,25.0998312 C27.0957216,24.5318742 27.206646,23.9316376 27.212182,23.3258168 L27.212182,23.3258168 L27.2250309,23.3258168 C27.2616742,22.5065746 27.2684599,22.17202 27.2697166,20.6904114 L27.2697828,18.9503732 C27.2679224,16.8759663 27.253822,16.5657944 27.212182,15.6408276 C27.204459,15.0415444 27.0935345,14.4479817 26.8843978,13.8860857 C26.5644734,13.0589387 25.9083583,12.4052434 25.0783043,12.0864656 C24.5143871,11.8779423 23.9186892,11.7675516 23.3172504,11.7598563 C22.4845917,11.7128569 22.1554256,11.7041534 20.671251,11.7025416 Z M19.5,14.0714286 C22.4980846,14.0714286 24.9285714,16.5019154 24.9285714,19.5 C24.9285714,22.4981607 22.4980846,24.9285714 19.5,24.9285714 C16.5018393,24.9285714 14.0714286,22.4981607 14.0714286,19.5 C14.0714286,16.5019154 16.5018393,14.0714286 19.5,14.0714286 Z M19.5,15.9739422 C17.552614,15.9739422 15.9739422,17.552614 15.9739422,19.5 C15.9739422,21.447386 17.552614,23.0260578 19.5,23.0260578 C21.44731,23.0260578 23.0259818,21.447386 23.0259818,19.5 C23.0259818,17.552614 21.44731,15.9739422 19.5,15.9739422 Z M24.9285307,12.7142857 C25.6780554,12.7142857 26.2857143,13.3218813 26.2857143,14.0714286 C26.2857143,14.8209758 25.6780554,15.4285714 24.9285307,15.4285714 C24.1790874,15.4285714 23.5714286,14.8209758 23.5714286,14.0714286 C23.5714286,13.3218813 24.1790874,12.7142857 24.9285307,12.7142857 Z" id="Combined-Shape" fill-rule="nonzero"></path>
    </g>
</svg>