<svg xmlns="http://www.w3.org/2000/svg" xmlns:xlink="http://www.w3.org/1999/xlink" id="icon-linkedin-noborder" viewBox="0 0 40 40" version="1.1" fill="#666">
    <g id="Icon/Social-Media/linkedin" stroke="none" stroke-width="1" fill-rule="evenodd">
        <path d="M15.0290114,28.5 L11.2972551,28.5 L11.2972551,16.8164062 L15.0290114,16.8164062 L15.0290114,28.5 Z M13.1611247,15.2226562 C11.9680875,15.2226562 11,14.2617188 11,13.1015625 C11,11.9414062 11.9680875,11 13.1611247,11 C14.354162,11 15.3222495,11.9414062 15.3222495,13.1015625 C15.3222495,14.2617188 14.354162,15.2226562 13.1611247,15.2226562 Z M28.995983,28.5 L25.2722607,28.5 L25.2722607,22.8125 C25.2722607,21.4570312 25.2441419,19.71875 23.3320687,19.71875 C21.3918768,19.71875 21.0946217,21.1914062 21.0946217,22.7148438 L21.0946217,28.5 L17.3668824,28.5 L17.3668824,16.8164062 L20.9459942,16.8164062 L20.9459942,18.4101562 L20.9982147,18.4101562 C21.4963178,17.4921875 22.7134568,16.5234375 24.529123,16.5234375 C28.3050658,16.5234375 29,18.9414062 29,22.0820312 L29,28.5 L28.995983,28.5 Z" id="Combined-Shape" fill-rule="nonzero"></path>
    </g>
</svg>