<svg xmlns="http://www.w3.org/2000/svg" xmlns:xlink="http://www.w3.org/1999/xlink" id="icon-search" width="23px" height="21px" viewBox="0 0 23 21" version="1.1">
    <title>Icon/Search</title>
    <g id="Desktop-Sprint-8" stroke="none" stroke-width="1" fill="none" fill-rule="evenodd">
        <g id="HP-Resi-3" transform="translate(-1404.000000, -20.000000)" fill="#030066">
            <g id="Group-24">
                <g id="Header">
                    <g id="HUBS">
                        <g id="utility-links" transform="translate(810.000000, 15.000000)">
                            <g id="UI/Search" transform="translate(590.000000, 0.000000)">
                                <path d="M12.5,5 C17.1944204,5 21,8.80557963 21,13.5 C21,15.4613243 20.3357131,17.2674962 19.2198551,18.7057996 L25.9897858,24.2250098 C26.417801,24.574039 26.4818319,25.203958 26.1328027,25.6319733 C25.8106219,26.0270643 25.249103,26.1120147 24.8279763,25.8482253 L24.7258392,25.7749902 L17.8120461,20.1360704 C16.3569181,21.3023819 14.5099278,22 12.5,22 C7.80557963,22 4,18.1944204 4,13.5 C4,8.80557963 7.80557963,5 12.5,5 Z M12.5,7 C8.91014913,7 6,9.91014913 6,13.5 C6,17.0898509 8.91014913,20 12.5,20 C16.0898509,20 19,17.0898509 19,13.5 C19,9.91014913 16.0898509,7 12.5,7 Z" id="Combined-Shape"></path>
                            </g>
                        </g>
                    </g>
                </g>
            </g>
        </g>
    </g>
</svg>