<svg xmlns="http://www.w3.org/2000/svg" xmlns:xlink="http://www.w3.org/1999/xlink" id="icon-twitter-noborder" viewBox="0 0 40 40" version="1.1" fill="#666">
    <g id="Icon/Social-Media/twitter" stroke="none" stroke-width="1" fill-rule="evenodd">
        <path d="M27.9442107,15.9874855 C27.9569061,16.1624771 27.9569061,16.3375072 27.9569061,16.5124989 C27.9569061,21.8499749 23.832554,28 16.2944387,28 C13.9720858,28 11.8147337,27.3374712 10,26.1875206 C10.3299622,26.2249968 10.64719,26.2375017 10.9898476,26.2375017 C12.906066,26.2375017 14.6700573,25.6000212 16.0786956,24.5125181 C14.2766573,24.4750034 12.7664952,23.3125095 12.2461806,21.7124979 C12.5,21.7499741 12.7537998,21.7749839 13.0203243,21.7749839 C13.3883335,21.7749839 13.7563819,21.7249643 14.0990004,21.637507 C12.220829,21.2624754 10.8121516,19.6374926 10.8121516,17.6749928 L10.8121516,17.6250117 C11.3578178,17.9250139 11.9923906,18.1125104 12.6649323,18.1374818 C11.5608655,17.4124669 10.8375423,16.174982 10.8375423,14.7749719 C10.8375423,14.0249858 11.0405509,13.3374856 11.3959039,12.7374813 C13.4136852,15.1874797 16.4467049,16.7874528 19.8476947,16.9624829 C19.784257,16.6624807 19.7461709,16.3500121 19.7461709,16.0375051 C19.7461709,13.8124794 21.5735999,12 23.8451713,12 C25.0253712,12 26.0913519,12.4874987 26.8401048,13.2749996 C27.7664757,13.1000079 28.6547994,12.7624911 29.4416384,12.3000022 C29.1370279,13.2375234 28.4898379,14.0250242 27.6396002,14.5249894 C28.4644862,14.437532 29.2639815,14.2124823 30,13.9000137 C29.4417166,14.699981 28.743706,15.4124525 27.9442107,15.9874855 Z" id="Combined-Shape" fill-rule="nonzero"></path>
    </g>
</svg>